<?xml version="1.0" encoding="UTF-8"?>
<svg width="300" height="300" viewBox="0 0 200 200" xmlns="http://www.w3.org/2000/svg">
    <!-- Ultra-premium gradients -->
    <defs>
        <linearGradient id="premiumBody" x1="0%" y1="0%" x2="100%" y2="100%">
            <stop offset="0%" style="stop-color:#ec4899;stop-opacity:1" />
            <stop offset="50%" style="stop-color:#8b5cf6;stop-opacity:1" />
            <stop offset="100%" style="stop-color:#3b82f6;stop-opacity:1" />
        </linearGradient>
        <radialGradient id="premiumEye">
            <stop offset="0%" style="stop-color:#fbbf24;stop-opacity:1" />
            <stop offset="100%" style="stop-color:#f59e0b;stop-opacity:0.9" />
        </radialGradient>
        <filter id="premiumGlow">
            <feGaussianBlur stdDeviation="4" result="coloredBlur"/>
            <feMerge>
                <feMergeNode in="coloredBlur"/>
                <feMergeNode in="SourceGraphic"/>
            </feMerge>
        </filter>
    </defs>
    
    <!-- Premium robot with enhanced details -->
    <g transform="scale(1.2) translate(-20, -15)">
        <!-- All the same elements as above but with premium gradients -->
        <rect x="65" y="85" width="70" height="75" rx="20" fill="url(#premiumBody)" stroke="#4c1d95" stroke-width="3" filter="url(#premiumGlow)"/>
        
        <!-- Ultra-toolbelt with premium finish -->
        <rect x="60" y="115" width="80" height="15" rx="8" fill="linear-gradient(135deg, #f59e0b, #dc2626)" stroke="#991b1b" stroke-width="3"/>
        
        <!-- Enhanced tools with metallic finish -->
        <g transform="translate(68, 118)">
            <rect x="0" y="0" width="5" height="10" rx="2" fill="linear-gradient(135deg, #fbbf24, #f59e0b)"/>
            <circle cx="2.5" cy="12" r="3" fill="#34d399"/>
        </g>
        
        <!-- Premium head with extra shine -->
        <rect x="70" y="45" width="60" height="45" rx="15" fill="linear-gradient(135deg, #a78bfa, #7c3aed)" stroke="#4c1d95" stroke-width="3"/>
        
        <!-- Ultra-detailed eyes with star-shaped pupils -->
        <ellipse cx="85" cy="65" rx="10" ry="8" fill="white" stroke="#4c1d95" stroke-width="3"/>
        <ellipse cx="85" cy="65" rx="7" ry="6" fill="url(#premiumEye)" filter="url(#premiumGlow)"/>
        <!-- Star-shaped highlight -->
        <path d="M 87 63 L 87.5 64 L 88 63 L 87.5 62 L 87 63 Z" fill="white"/>
        
        <ellipse cx="115" cy="65" rx="10" ry="8" fill="white" stroke="#4c1d95" stroke-width="3"/>
        <ellipse cx="115" cy="65" rx="7" ry="6" fill="url(#premiumEye)" filter="url(#premiumGlow)"/>
        <path d="M 117 63 L 117.5 64 L 118 63 L 117.5 62 L 117 63 Z" fill="white"/>
        
        <!-- Super happy expression -->
        <path d="M 83 78 Q 100 87 117 78" stroke="#4c1d95" stroke-width="3" fill="none" stroke-linecap="round"/>
        
        <!-- Enhanced thumbs up with sparkles -->
        <g transform="translate(135, 95)">
            <rect x="0" y="0" width="22" height="14" rx="7" fill="url(#premiumBody)" stroke="#4c1d95" stroke-width="3"/>
            <ellipse cx="30" cy="7" rx="10" ry="12" fill="#a78bfa" stroke="#4c1d95" stroke-width="3"/>
            
            <!-- Super thumbs up -->
            <g transform="translate(38, 0) rotate(-45 0 0)">
                <ellipse cx="0" cy="-3" rx="8" ry="12" fill="#fbbf24" stroke="#f59e0b" stroke-width="3"/>
                <ellipse cx="0" cy="-10" rx="4" ry="3" fill="#34d399"/>
                <!-- Sparkles around thumb -->
                <circle cx="-5" cy="-8" r="1.5" fill="#fbbf24" opacity="0.8"/>
                <circle cx="5" cy="-12" r="1" fill="#34d399" opacity="0.6"/>
                <circle cx="8" cy="-5" r="0.8" fill="#fbbf24" opacity="0.9"/>
            </g>
        </g>
        
        <!-- Premium antenna with dual lights -->
        <line x1="100" y1="45" x2="100" y2="30" stroke="#4c1d95" stroke-width="5" stroke-linecap="round"/>
        <circle cx="100" cy="30" r="8" fill="#fbbf24" filter="url(#premiumGlow)"/>
        <circle cx="100" cy="30" r="3" fill="white"/>
        <!-- Second antenna light -->
        <circle cx="110" cy="35" r="3" fill="#34d399" filter="url(#premiumGlow)"/>
        
        <!-- Premium legs with enhanced design -->
        <rect x="75" y="160" width="18" height="30" rx="9" fill="url(#premiumBody)" stroke="#4c1d95" stroke-width="3"/>
        <rect x="107" y="160" width="18" height="30" rx="9" fill="url(#premiumBody)" stroke="#4c1d95" stroke-width="3"/>
        
        <!-- Premium feet -->
        <ellipse cx="84" cy="193" rx="12" ry="8" fill="#8b5cf6" stroke="#4c1d95" stroke-width="3"/>
        <ellipse cx="116" cy="193" rx="12" ry="8" fill="#8b5cf6" stroke="#4c1d95" stroke-width="3"/>
    </g>
</svg>