<?xml version="1.0" encoding="UTF-8"?>
<svg width="200" height="200" viewBox="0 0 200 200" xmlns="http://www.w3.org/2000/svg">
    <!-- Working gradients with baby blue -->
    <defs>
        <linearGradient id="waveBodyGrad" x1="0%" y1="0%" x2="100%" y2="100%">
            <stop offset="0%" style="stop-color:#374151;stop-opacity:1" />
            <stop offset="50%" style="stop-color:#1f2937;stop-opacity:1" />
            <stop offset="100%" style="stop-color:#111827;stop-opacity:1" />
        </linearGradient>
        <linearGradient id="waveHeadGrad" x1="0%" y1="0%" x2="100%" y2="100%">
            <stop offset="0%" style="stop-color:#475569;stop-opacity:1" />
            <stop offset="100%" style="stop-color:#1f2937;stop-opacity:1" />
        </linearGradient>
        <radialGradient id="babyBlueEye">
            <stop offset="0%" style="stop-color:#60a5fa;stop-opacity:1" />
            <stop offset="100%" style="stop-color:#3b82f6;stop-opacity:0.8" />
        </radialGradient>
        <radialGradient id="babyBlueMouth">
            <stop offset="0%" style="stop-color:#60a5fa;stop-opacity:1" />
            <stop offset="100%" style="stop-color:#2563eb;stop-opacity:0.9" />
        </radialGradient>
        <linearGradient id="waveBelt">
            <stop offset="0%" style="stop-color:#ea580c;stop-opacity:1" />
            <stop offset="100%" style="stop-color:#c2410c;stop-opacity:1" />
        </linearGradient>
        <filter id="waveShadow">
            <feDropShadow dx="2" dy="2" stdDeviation="2.5" flood-opacity="0.25"/>
        </filter>
        <filter id="babyBlueGlow">
            <feGaussianBlur stdDeviation="2" result="coloredBlur"/>
            <feMerge>
                <feMergeNode in="coloredBlur"/>
                <feMergeNode in="SourceGraphic"/>
            </feMerge>
        </filter>
    </defs>
    
    <!-- Ground shadow -->
    <ellipse cx="100" cy="195" rx="40" ry="6" fill="#000000" opacity="0.2"/>
    
    <!-- Leaner Robot Body -->
    <rect x="70" y="95" width="60" height="60" rx="15" fill="url(#waveBodyGrad)" stroke="#000000" stroke-width="2" filter="url(#waveShadow)"/>
    
    <!-- Body panels -->
    <rect x="78" y="102" width="44" height="16" rx="6" fill="#374151" opacity="0.4"/>
    <rect x="82" y="128" width="36" height="2" fill="#6b7280"/>
    
    <!-- Tool Belt -->
    <rect x="62" y="122" width="76" height="12" rx="5" fill="url(#waveBelt)" stroke="#000000" stroke-width="2" filter="url(#waveShadow)"/>
    
    <!-- Belt details -->
    <circle cx="74" cy="128" r="1" fill="#000000"/>
    <circle cx="100" cy="128" r="1" fill="#000000"/>
    <circle cx="126" cy="128" r="1" fill="#000000"/>
    
    <!-- Tools -->
    <g transform="translate(68, 119)" filter="url(#waveShadow)">
        <rect x="0" y="0" width="4.5" height="8" rx="1" fill="#6b7280" stroke="#000000" stroke-width="1"/>
        <circle cx="2.25" cy="10" r="2.5" fill="#000000"/>
        <rect x="1" y="-1" width="2.5" height="1.5" rx="0.5" fill="#6b7280"/>
    </g>
    
    <g transform="translate(92, 119)" filter="url(#waveShadow)">
        <rect x="0" y="0" width="3" height="7" rx="1" fill="#6b7280" stroke="#000000" stroke-width="1"/>
        <rect x="-1" y="7" width="5" height="2" rx="1" fill="#ea580c"/>
        <circle cx="1.5" cy="-1" r="1" fill="#60a5fa" filter="url(#babyBlueGlow)"/>
    </g>
    
    <g transform="translate(115, 119)" filter="url(#waveShadow)">
        <rect x="0" y="0" width="3.5" height="6" rx="1" fill="#6b7280" stroke="#000000" stroke-width="1"/>
        <rect x="-1.5" y="6" width="6.5" height="2.5" rx="1" fill="#374151"/>
        <rect x="0" y="8.5" width="3.5" height="1" fill="#374151"/>
    </g>
    
    <!-- SAME SIZE HEAD -->
    <rect x="72" y="52" width="56" height="42" rx="12" fill="url(#waveHeadGrad)" stroke="#000000" stroke-width="2.5" filter="url(#waveShadow)"/>
    
    <!-- Head armor -->
    <rect x="80" y="58" width="40" height="18" rx="6" fill="#475569" opacity="0.5"/>
    <rect x="88" y="62" width="24" height="8" rx="3" fill="#374151" opacity="0.3"/>
    
    <!-- Baby Blue Eyes (unchanged) -->
    <ellipse cx="85" cy="66" rx="9" ry="7" fill="#000000"/>
    <ellipse cx="85" cy="66" rx="6" ry="5" fill="url(#babyBlueEye)" filter="url(#babyBlueGlow)"/>
    <rect x="84" y="64" width="2" height="3" rx="0.5" fill="#000000"/>
    <ellipse cx="86" cy="65" rx="2" ry="1" fill="#93c5fd"/>
    <ellipse cx="83" cy="67" rx="1" ry="0.5" fill="#dbeafe" opacity="0.8"/>
    
    <ellipse cx="115" cy="66" rx="9" ry="7" fill="#000000"/>
    <ellipse cx="115" cy="66" rx="6" ry="5" fill="url(#babyBlueEye)" filter="url(#babyBlueGlow)"/>
    <rect x="114" y="64" width="2" height="3" rx="0.5" fill="#000000"/>
    <ellipse cx="116" cy="65" rx="2" ry="1" fill="#93c5fd"/>
    <ellipse cx="113" cy="67" rx="1" ry="0.5" fill="#dbeafe" opacity="0.8"/>
    
    <!-- Baby Blue Mouth -->
    <rect x="88" y="78" width="24" height="6" rx="3" fill="#000000"/>
    <rect x="90" y="79.5" width="20" height="3" rx="1.5" fill="url(#babyBlueMouth)" filter="url(#babyBlueGlow)"/>
    <path d="M 92 81 Q 100 84 108 81" stroke="#60a5fa" stroke-width="1" fill="none" stroke-linecap="round" opacity="0.6"/>
    <circle cx="100" cy="81" r="1" fill="#60a5fa" filter="url(#babyBlueGlow)"/>
    
    <!-- WAVING LEFT ARM -->
    <g transform="translate(45, 105)" filter="url(#waveShadow)">
        <!-- Upper arm -->
        <rect x="0" y="0" width="25" height="12" rx="6" fill="url(#waveBodyGrad)" stroke="#000000" stroke-width="2"/>
        
        <!-- Joint -->
        <circle cx="25" cy="6" r="2" fill="#6b7280" stroke="#000000" stroke-width="1"/>
        
        <!-- Forearm with wave -->
        <g>
            <!-- Animated wave motion -->
            <animateTransform
                id="waveTransform"
                attributeName="transform"
                type="rotate"
                from="0 2 -2"
                to="0 2 -2"
                dur="2s"
                repeatCount="indefinite"/>
            
            <g transform="translate(15, 0)" id="waveArm">
                <rect x="0" y="0" width="15" height="8" rx="4" fill="url(#waveBodyGrad)" stroke="#000000" stroke-width="2">
                    <!-- Hand movement -->
                    <animateTransform
                        attributeName="transform"
                        type="rotate"
                        from="-25 4 0"
                        to="25 4 0"
                        dur="2s"
                        repeatCount="indefinite"/>
                </rect>
                
                <!-- Hand -->
                <ellipse cx="22" cy="4" rx="6" ry="8" fill="#475569" stroke="#000000" stroke-width="2">
                    <rect x="18" y="2" width="6" height="3" rx="1" fill="#374151" opacity="0.4"/>
                    <circle cx="20" cy="3" r="1.5" fill="#6b7280"/>
                </ellipse>
            </g>
        </g>
    </g>
    
    <!-- THUMBS UP RIGHT ARM (static) -->
    <g transform="translate(130, 105)" filter="url(#waveShadow)">
        <!-- Upper arm -->
        <rect x="0" y="0" width="20" height="12" rx="6" fill="url(#waveBodyGrad)" stroke="#000000" stroke-width="2"/>
        
        <!-- Joint -->
        <circle cx="20" cy="6" r="2" fill="#6b7280" stroke="#000000" stroke-width="1"/>
        
        <!-- Hand -->
        <ellipse cx="28" cy="6" rx="7" ry="9" fill="#475569" stroke="#000000" stroke-width="2"/>
        
        <!-- Hand details -->
        <rect x="23" y="3.5" width="6" height="3" rx="1" fill="#374151" opacity="0.4"/>
        <circle cx="25" cy="5" r="1.5" fill="#6b7280"/>
        
        <!-- PERFECT THUMBS UP -->
        <g transform="translate(35, 0) rotate(-35 0 0)">
            <ellipse cx="0" cy="-4" rx="6" ry="9.5" fill="#475569" stroke="#000000" stroke-width="2"/>
            
            <!-- Thumb armor -->
            <rect x="-1.5" y="-7" width="2.5" height="6" rx="1" fill="#374151" opacity="0.6"/>
            
            <!-- Thumb joint -->
            <circle cx="0" cy="-4" r="1.5" fill="#6b7280" stroke="#000000" stroke-width="1"/>
            
            <!-- Thumb tip -->
            <ellipse cx="0.8" cy="-12" rx="2.5" ry="3.5" fill="#60a5fa" filter="url(#babyBlueGlow)"/>
            
            <!-- Thumb highlights -->
            <ellipse cx="-0.5" cy="-7" rx="2" ry="3" fill="#93c5fd" opacity="0.7"/>
            <ellipse cx="1.2" cy="-10" rx="1.5" ry="2.5" fill="#dbeafe" opacity="0.8"/>
            
            <!-- Thumb sparkle -->
            <circle cx="1.5" cy="-13" r="0.8" fill="#60a5fa">
                <!-- Pulse animation -->
                <animate attributeName="r" values="0.8;1.2;0.8" dur="1.5s" repeatCount="indefinite"/>
            </circle>
        </g>
    </g>
    
    <!-- Antenna -->
    <line x1="100" y1="52" x2="100" y2="38" stroke="#000000" stroke-width="3" stroke-linecap="round"/>
    <circle cx="100" cy="52" r="3" fill="#6b7280" stroke="#000000" stroke-width="1.5"/>
    
    <!-- Baby blue antenna lights -->
    <g filter="url(#babyBlueGlow)">
        <circle cx="100" cy="36" r="4" fill="#60a5fa"/>
        <circle cx="100" cy="36" r="2.5" fill="#3b82f6"/>
        <circle cx="100" cy="36" r="1" fill="#dbeafe"/>
        <circle cx="108" cy="40" r="1.5" fill="#60a5fa">
            <!-- Pulsing animation -->
            <animate attributeName="opacity" values="0.6;1;0.6" dur="2s" repeatCount="indefinite"/>
        </circle>
    </g>
    
    <!-- Leaner Legs -->
    <rect x="78" y="155" width="16" height="30" rx="8" fill="url(#waveBodyGrad)" stroke="#000000" stroke-width="2" filter="url(#waveShadow)"/>
    <rect x="106" y="155" width="16" height="30" rx="8" fill="url(#waveBodyGrad)" stroke="#000000" stroke-width="2" filter="url(#waveShadow)"/>
    
    <!-- Leg armor -->
    <rect x="82" y="165" width="6" height="12" rx="2" fill="#6b7280"/>
    <rect x="110" y="165" width="6" height="12" rx="2" fill="#6b7280"/>
    <circle cx="86" cy="170" r="1.5" fill="#000000"/>
    <circle cx="114" cy="170" r="1.5" fill="#000000"/>
    
    <!-- Leaner Feet -->
    <g filter="url(#waveShadow)">
        <rect x="74" y="182" width="24" height="5" rx="2.5" fill="#1f2937" stroke="#000000" stroke-width="2"/>
        <rect x="102" y="182" width="24" height="5" rx="2.5" fill="#1f2937" stroke="#000000" stroke-width="2"/>
        <rect x="76" y="185" width="20" height="1.5" fill="#000000"/>
        <rect x="104" y="185" width="20" height="1.5" fill="#000000"/>
    </g>
</svg>