<?xml version="1.0" encoding="UTF-8"?>
<svg width="60" height="60" viewBox="0 0 200 200" xmlns="http://www.w3.org/2000/svg">
    <defs>
        <linearGradient id="bodyGrad" x1="0%" y1="0%" x2="100%" y2="100%">
            <stop offset="0%" style="stop-color:#667eea;stop-opacity:1" />
            <stop offset="100%" style="stop-color:#764ba2;stop-opacity:1" />
        </linearGradient>
        <linearGradient id="headGrad" x1="0%" y1="0%" x2="100%" y2="100%">
            <stop offset="0%" style="stop-color:#4a5568;stop-opacity:1" />
            <stop offset="100%" style="stop-color:#2d3748;stop-opacity:1" />
        </linearGradient>
        <radialGradient id="eyeGlow">
            <stop offset="0%" style="stop-color:#00ff88;stop-opacity:1" />
            <stop offset="100%" style="stop-color:#00cc66;stop-opacity:0.6" />
        </radialGradient>
    </defs>
    
    <rect x="70" y="80" width="60" height="70" rx="15" fill="url(#bodyGrad)" stroke="#4a5568" stroke-width="2"/>
    <rect x="65" y="110" width="70" height="12" rx="6" fill="#ff6b35" stroke="#d94406" stroke-width="2"/>
    <g transform="translate(75, 113) scale(0.8)">
        <rect x="0" y="0" width="4" height="8" rx="1" fill="#silver"/>
        <circle cx="2" cy="10" r="3" fill="#silver"/>
    </g>
    <g transform="translate(90, 113) scale(0.8)">
        <rect x="0" y="0" width="2" height="8" rx="0.5" fill="#gold"/>
        <rect x="-2" y="8" width="6" height="2" fill="#gold"/>
    </g>
    <g transform="translate(105, 113) scale(0.8)">
        <rect x="0" y="0" width="3" height="6" rx="0.5" fill="#8b4513"/>
        <rect x="-2" y="6" width="7" height="3" fill="#654321"/>
    </g>
    
    <rect x="75" y="50" width="50" height="40" rx="12" fill="url(#headGrad)" stroke="#2d3748" stroke-width="2"/>
    <circle cx="88" cy="65" r="8" fill="white" stroke="#4a5568" stroke-width="2"/>
    <circle cx="88" cy="65" r="5" fill="url(#eyeGlow)"/>
    <circle cx="89" cy="64" r="2" fill="white"/>
    <circle cx="112" cy="65" r="8" fill="white" stroke="#4a5568" stroke-width="2"/>
    <circle cx="112" cy="65" r="5" fill="url(#eyeGlow)"/>
    <circle cx="113" cy="64" r="2" fill="white"/>
    
    <path d="M 88 75 Q 100 82 112 75" stroke="#4a5568" stroke-width="2" fill="none" stroke-linecap="round"/>
    <rect x="50" y="90" width="20" height="12" rx="6" fill="url(#bodyGrad)" stroke="#4a5568" stroke-width="2"/>
    <g transform="translate(130, 90) scale(0.9)">
        <rect x="0" y="0" width="20" height="12" rx="6" fill="url(#bodyGrad)" stroke="#4a5568" stroke-width="2"/>
        <ellipse cx="20" cy="6" rx="8" ry="10" fill="#4a5568" stroke="#2d3748" stroke-width="2"/>
        <ellipse cx="28" cy="0" rx="5" ry="8" fill="#4a5568" stroke="#2d3748" stroke-width="2" transform="rotate(-30 28 0)"/>
        <ellipse cx="28" cy="0" rx="3" ry="5" fill="#87ceeb" transform="rotate(-30 28 0)"/>
    </g>
    
    <line x1="100" y1="50" x2="100" y2="40" stroke="#4a5568" stroke-width="3" stroke-linecap="round"/>
    <circle cx="100" cy="38" r="4" fill="#00ff88"/>
    <circle cx="100" cy="38" r="2" fill="white"/>
    <rect x="80" y="150" width="15" height="25" rx="7" fill="url(#bodyGrad)" stroke="#4a5568" stroke-width="2"/>
    <rect x="105" y="150" width="15" height="25" rx="7" fill="url(#bodyGrad)" stroke="#4a5568" stroke-width="2"/>
    <ellipse cx="87.5" cy="178" rx="10" ry="6" fill="#4a5568" stroke="#2d3748" stroke-width="2"/>
    <ellipse cx="112.5" cy="178" rx="10" ry="6" fill="#4a5568" stroke="#2d3748" stroke-width="2"/>
    <ellipse cx="90" cy="95" rx="15" ry="8" fill="white" opacity="0.3"/>
    <ellipse cx="110" cy="110" rx="10" ry="6" fill="white" opacity="0.2"/>
</svg>